<?xml version="1.0" encoding="UTF-8" standalone="no"?>
<!DOCTYPE svg PUBLIC "-//W3C//DTD SVG 1.1//EN"
 "http://www.w3.org/Graphics/SVG/1.1/DTD/svg11.dtd">
<!-- Generated by graphviz version 14.1.1 (20251213.1925)
 -->
<!-- Title: InheritanceTree Pages: 1 -->
<svg width="427pt" height="285pt"
 viewBox="0.00 0.00 427.00 285.00" xmlns="http://www.w3.org/2000/svg" xmlns:xlink="http://www.w3.org/1999/xlink">
<g id="graph0" class="graph" transform="scale(1 1) rotate(0) translate(4 280.5)">
<title>InheritanceTree</title>
<polygon fill="white" stroke="none" points="-4,4 -4,-280.5 423,-280.5 423,4 -4,4"/>
<text xml:space="preserve" text-anchor="middle" x="209.5" y="-7.2" font-family="Times New Roman,serif" font-size="14.00">simple_config &#45; Inheritance Hierarchy</text>
<!-- SIMPLE_CONFIG -->
<g id="node1" class="node">
<title>SIMPLE_CONFIG</title>
<path fill="none" stroke="black" d="M109.75,-96.5C109.75,-96.5 12,-96.5 12,-96.5 6,-96.5 0,-90.5 0,-84.5 0,-84.5 0,-72.5 0,-72.5 0,-66.5 6,-60.5 12,-60.5 12,-60.5 109.75,-60.5 109.75,-60.5 115.75,-60.5 121.75,-66.5 121.75,-72.5 121.75,-72.5 121.75,-84.5 121.75,-84.5 121.75,-90.5 115.75,-96.5 109.75,-96.5"/>
<text xml:space="preserve" text-anchor="middle" x="60.88" y="-73.45" font-family="Times New Roman,serif" font-size="14.00">SIMPLE_CONFIG</text>
</g>
<!-- SIMPLE_JSON_CONSTANTS -->
<g id="node2" class="node">
<title>SIMPLE_JSON_CONSTANTS</title>
<path fill="none" stroke="black" d="M407,-132.5C407,-132.5 241.75,-132.5 241.75,-132.5 235.75,-132.5 229.75,-126.5 229.75,-120.5 229.75,-120.5 229.75,-108.5 229.75,-108.5 229.75,-102.5 235.75,-96.5 241.75,-96.5 241.75,-96.5 407,-96.5 407,-96.5 413,-96.5 419,-102.5 419,-108.5 419,-108.5 419,-120.5 419,-120.5 419,-126.5 413,-132.5 407,-132.5"/>
<text xml:space="preserve" text-anchor="middle" x="324.38" y="-109.45" font-family="Times New Roman,serif" font-size="14.00">SIMPLE_JSON_CONSTANTS</text>
</g>
<!-- SIMPLE_CONFIG&#45;&gt;SIMPLE_JSON_CONSTANTS -->
<g id="edge1" class="edge">
<title>SIMPLE_CONFIG&#45;&gt;SIMPLE_JSON_CONSTANTS</title>
<path fill="none" stroke="black" d="M112,-96.92C112,-105.78 112,-114.5 112,-114.5 112,-114.5 217.85,-114.5 217.85,-114.5"/>
<polygon fill="none" stroke="black" points="217.85,-118 227.85,-114.5 217.85,-111 217.85,-118"/>
</g>
<!-- NONE -->
<g id="node3" class="node">
<title>NONE</title>
<path fill="none" stroke="black" d="M339.38,-60.5C339.38,-60.5 309.38,-60.5 309.38,-60.5 303.38,-60.5 297.38,-54.5 297.38,-48.5 297.38,-48.5 297.38,-36.5 297.38,-36.5 297.38,-30.5 303.38,-24.5 309.38,-24.5 309.38,-24.5 339.38,-24.5 339.38,-24.5 345.38,-24.5 351.38,-30.5 351.38,-36.5 351.38,-36.5 351.38,-48.5 351.38,-48.5 351.38,-54.5 345.38,-60.5 339.38,-60.5"/>
<text xml:space="preserve" text-anchor="middle" x="324.38" y="-37.45" font-family="Times New Roman,serif" font-size="14.00">NONE</text>
</g>
<!-- SIMPLE_CONFIG&#45;&gt;NONE -->
<g id="edge2" class="edge">
<title>SIMPLE_CONFIG&#45;&gt;NONE</title>
<path fill="none" stroke="black" d="M122.23,-78.5C199.99,-78.5 324,-78.5 324,-78.5 324,-78.5 324,-72.44 324,-72.44"/>
<polygon fill="none" stroke="black" points="327.5,-72.44 324,-62.44 320.5,-72.44 327.5,-72.44"/>
</g>
<!-- LIB_TESTS -->
<g id="node4" class="node">
<title>LIB_TESTS</title>
<path fill="none" stroke="black" d="M91,-204.5C91,-204.5 30.75,-204.5 30.75,-204.5 24.75,-204.5 18.75,-198.5 18.75,-192.5 18.75,-192.5 18.75,-180.5 18.75,-180.5 18.75,-174.5 24.75,-168.5 30.75,-168.5 30.75,-168.5 91,-168.5 91,-168.5 97,-168.5 103,-174.5 103,-180.5 103,-180.5 103,-192.5 103,-192.5 103,-198.5 97,-204.5 91,-204.5"/>
<text xml:space="preserve" text-anchor="middle" x="60.88" y="-181.45" font-family="Times New Roman,serif" font-size="14.00">LIB_TESTS</text>
</g>
<!-- TEST_SET_BASE -->
<g id="node5" class="node">
<title>TEST_SET_BASE</title>
<path fill="none" stroke="black" d="M372.5,-204.5C372.5,-204.5 276.25,-204.5 276.25,-204.5 270.25,-204.5 264.25,-198.5 264.25,-192.5 264.25,-192.5 264.25,-180.5 264.25,-180.5 264.25,-174.5 270.25,-168.5 276.25,-168.5 276.25,-168.5 372.5,-168.5 372.5,-168.5 378.5,-168.5 384.5,-174.5 384.5,-180.5 384.5,-180.5 384.5,-192.5 384.5,-192.5 384.5,-198.5 378.5,-204.5 372.5,-204.5"/>
<text xml:space="preserve" text-anchor="middle" x="324.38" y="-181.45" font-family="Times New Roman,serif" font-size="14.00">TEST_SET_BASE</text>
</g>
<!-- LIB_TESTS&#45;&gt;TEST_SET_BASE -->
<g id="edge3" class="edge">
<title>LIB_TESTS&#45;&gt;TEST_SET_BASE</title>
<path fill="none" stroke="black" d="M103.21,-186.5C103.21,-186.5 252.46,-186.5 252.46,-186.5"/>
<polygon fill="none" stroke="black" points="252.46,-190 262.46,-186.5 252.46,-183 252.46,-190"/>
</g>
<!-- TEST_APP -->
<g id="node6" class="node">
<title>TEST_APP</title>
<path fill="none" stroke="black" d="M88.75,-276.5C88.75,-276.5 33,-276.5 33,-276.5 27,-276.5 21,-270.5 21,-264.5 21,-264.5 21,-252.5 21,-252.5 21,-246.5 27,-240.5 33,-240.5 33,-240.5 88.75,-240.5 88.75,-240.5 94.75,-240.5 100.75,-246.5 100.75,-252.5 100.75,-252.5 100.75,-264.5 100.75,-264.5 100.75,-270.5 94.75,-276.5 88.75,-276.5"/>
<text xml:space="preserve" text-anchor="middle" x="60.88" y="-253.45" font-family="Times New Roman,serif" font-size="14.00">TEST_APP</text>
</g>
</g>
</svg>
