<?xml version="1.0" encoding="UTF-8" standalone="no"?>
<!DOCTYPE svg PUBLIC "-//W3C//DTD SVG 1.1//EN"
 "http://www.w3.org/Graphics/SVG/1.1/DTD/svg11.dtd">
<!-- Generated by graphviz version 14.1.1 (20251213.1925)
 -->
<!-- Title: ContractCoverage Pages: 1 -->
<svg width="816pt" height="695pt"
 viewBox="48.00 48.00 768.00 647.00" xmlns="http://www.w3.org/2000/svg" xmlns:xlink="http://www.w3.org/1999/xlink">
<g id="graph0" class="graph" transform="scale(1.11401 1.11401) rotate(0) translate(47.09 576.71)">
<title>ContractCoverage</title>
<polygon fill="white" stroke="none" points="-4,4 -4,-533.62 642.31,-533.62 642.31,4 -4,4"/>
<text xml:space="preserve" text-anchor="middle" x="319.16" y="-516.12" font-family="Times New Roman,serif" font-size="10.00">simple_config &#45; Contract Coverage</text>
<g id="clust1" class="cluster">
<title>cluster_SIMPLE_CONFIG</title>
<polygon fill="white" stroke="black" points="275.94,-449.87 275.94,-510.37 381.94,-510.37 381.94,-449.87 275.94,-449.87"/>
<text xml:space="preserve" text-anchor="middle" x="328.94" y="-493.07" font-family="Times New Roman,serif" font-size="14.00">SIMPLE_CONFIG</text>
</g>
<g id="clust2" class="cluster">
<title>cluster_LIB_TESTS</title>
<polygon fill="white" stroke="black" points="0,-49.87 0,-390.38 375.88,-390.38 375.88,-49.87 0,-49.87"/>
<text xml:space="preserve" text-anchor="middle" x="187.94" y="-373.07" font-family="Times New Roman,serif" font-size="14.00">LIB_TESTS</text>
</g>
<g id="clust3" class="cluster">
<title>cluster_TEST_APP</title>
<polygon fill="white" stroke="black" points="425.94,-250.38 425.94,-425.88 599.94,-425.88 599.94,-250.38 425.94,-250.38"/>
<text xml:space="preserve" text-anchor="middle" x="512.94" y="-408.57" font-family="Times New Roman,serif" font-size="14.00">TEST_APP</text>
</g>
<g id="clust4" class="cluster">
<title>cluster_legend</title>
<polygon fill="lightyellow" stroke="black" points="425.56,0 425.56,-188.25 638.31,-188.25 638.31,0 425.56,0"/>
<text xml:space="preserve" text-anchor="middle" x="531.94" y="-174.75" font-family="Times New Roman,serif" font-size="10.00">Legend</text>
</g>
<!-- LIB_TESTS_on_prepare -->
<g id="node1" class="node">
<title>LIB_TESTS_on_prepare</title>
<polygon fill="lightcoral" stroke="black" points="61.75,-239.87 0,-239.87 0,-203.87 61.75,-203.87 61.75,-239.87"/>
<text xml:space="preserve" text-anchor="middle" x="30.88" y="-218" font-family="Times New Roman,serif" font-size="10.00">on_prepare</text>
</g>
<!-- LIB_TESTS_test_empty_config -->
<g id="node2" class="node">
<title>LIB_TESTS_test_empty_config</title>
<polygon fill="lightcoral" stroke="black" points="338.12,-309.87 245.62,-309.87 245.62,-273.87 338.12,-273.87 338.12,-309.87"/>
<text xml:space="preserve" text-anchor="middle" x="291.88" y="-288" font-family="Times New Roman,serif" font-size="10.00">test_empty_config</text>
</g>
<!-- LIB_TESTS_test_string_values -->
<g id="node3" class="node">
<title>LIB_TESTS_test_string_values</title>
<polygon fill="lightcoral" stroke="black" points="168,-141.87 77.75,-141.87 77.75,-105.87 168,-105.87 168,-141.87"/>
<text xml:space="preserve" text-anchor="middle" x="122.88" y="-120" font-family="Times New Roman,serif" font-size="10.00">test_string_values</text>
</g>
<!-- LIB_TESTS_test_integer_values -->
<g id="node4" class="node">
<title>LIB_TESTS_test_integer_values</title>
<polygon fill="lightcoral" stroke="black" points="172.63,-295.87 77.13,-295.87 77.13,-259.87 172.63,-259.87 172.63,-295.87"/>
<text xml:space="preserve" text-anchor="middle" x="124.88" y="-274" font-family="Times New Roman,serif" font-size="10.00">test_integer_values</text>
</g>
<!-- LIB_TESTS_test_boolean_values -->
<g id="node5" class="node">
<title>LIB_TESTS_test_boolean_values</title>
<polygon fill="lightcoral" stroke="black" points="289.88,-253.87 189.88,-253.87 189.88,-217.87 289.88,-217.87 289.88,-253.87"/>
<text xml:space="preserve" text-anchor="middle" x="239.88" y="-232" font-family="Times New Roman,serif" font-size="10.00">test_boolean_values</text>
</g>
<!-- LIB_TESTS_test_real_values -->
<g id="node6" class="node">
<title>LIB_TESTS_test_real_values</title>
<polygon fill="lightcoral" stroke="black" points="124.88,-351.87 42.88,-351.87 42.88,-315.87 124.88,-315.87 124.88,-351.87"/>
<text xml:space="preserve" text-anchor="middle" x="83.88" y="-330" font-family="Times New Roman,serif" font-size="10.00">test_real_values</text>
</g>
<!-- LIB_TESTS_test_defaults -->
<g id="node7" class="node">
<title>LIB_TESTS_test_defaults</title>
<polygon fill="lightcoral" stroke="black" points="88.75,-85.87 21,-85.87 21,-49.87 88.75,-49.87 88.75,-85.87"/>
<text xml:space="preserve" text-anchor="middle" x="54.88" y="-64" font-family="Times New Roman,serif" font-size="10.00">test_defaults</text>
</g>
<!-- LIB_TESTS_test_sections -->
<g id="node8" class="node">
<title>LIB_TESTS_test_sections</title>
<polygon fill="lightcoral" stroke="black" points="370.12,-365.88 301.62,-365.88 301.62,-329.88 370.12,-329.88 370.12,-365.88"/>
<text xml:space="preserve" text-anchor="middle" x="335.88" y="-344" font-family="Times New Roman,serif" font-size="10.00">test_sections</text>
</g>
<!-- LIB_TESTS_test_dot_notation -->
<g id="node9" class="node">
<title>LIB_TESTS_test_dot_notation</title>
<polygon fill="lightcoral" stroke="black" points="229.25,-351.87 140.5,-351.87 140.5,-315.87 229.25,-315.87 229.25,-351.87"/>
<text xml:space="preserve" text-anchor="middle" x="184.88" y="-330" font-family="Times New Roman,serif" font-size="10.00">test_dot_notation</text>
</g>
<!-- LIB_TESTS_test_typed_arrays -->
<g id="node10" class="node">
<title>LIB_TESTS_test_typed_arrays</title>
<polygon fill="lightcoral" stroke="black" points="375.88,-85.87 287.88,-85.87 287.88,-49.87 375.88,-49.87 375.88,-85.87"/>
<text xml:space="preserve" text-anchor="middle" x="331.88" y="-64" font-family="Times New Roman,serif" font-size="10.00">test_typed_arrays</text>
</g>
<!-- LIB_TESTS_test_environment_fallback -->
<g id="node11" class="node">
<title>LIB_TESTS_test_environment_fallback</title>
<polygon fill="lightcoral" stroke="black" points="209.63,-197.87 84.13,-197.87 84.13,-161.87 209.63,-161.87 209.63,-197.87"/>
<text xml:space="preserve" text-anchor="middle" x="146.88" y="-176" font-family="Times New Roman,serif" font-size="10.00">test_environment_fallback</text>
</g>
<!-- LIB_TESTS_test_pretty_print -->
<g id="node12" class="node">
<title>LIB_TESTS_test_pretty_print</title>
<polygon fill="lightcoral" stroke="black" points="267,-92.87 182.75,-92.87 182.75,-56.87 267,-56.87 267,-92.87"/>
<text xml:space="preserve" text-anchor="middle" x="224.88" y="-71" font-family="Times New Roman,serif" font-size="10.00">test_pretty_print</text>
</g>
<!-- LIB_TESTS_test_factory_support -->
<g id="node13" class="node">
<title>LIB_TESTS_test_factory_support</title>
<polygon fill="lightcoral" stroke="black" points="324.88,-148.87 224.88,-148.87 224.88,-112.87 324.88,-112.87 324.88,-148.87"/>
<text xml:space="preserve" text-anchor="middle" x="274.88" y="-127" font-family="Times New Roman,serif" font-size="10.00">test_factory_support</text>
</g>
<!-- TEST_APP_make -->
<g id="node14" class="node">
<title>TEST_APP_make</title>
<polygon fill="lightcoral" stroke="black" points="479.94,-286.38 425.94,-286.38 425.94,-250.38 479.94,-250.38 479.94,-286.38"/>
<text xml:space="preserve" text-anchor="middle" x="452.94" y="-264.5" font-family="Times New Roman,serif" font-size="10.00">make</text>
</g>
<!-- TEST_APP_tests -->
<g id="node15" class="node">
<title>TEST_APP_tests</title>
<polygon fill="lightgray" stroke="black" points="524.94,-341.38 470.94,-341.38 470.94,-305.38 524.94,-305.38 524.94,-341.38"/>
<text xml:space="preserve" text-anchor="middle" x="497.94" y="-319.5" font-family="Times New Roman,serif" font-size="10.00">tests</text>
</g>
<!-- TEST_APP_passed -->
<g id="node16" class="node">
<title>TEST_APP_passed</title>
<polygon fill="lightgray" stroke="black" points="589.94,-396.38 535.94,-396.38 535.94,-360.38 589.94,-360.38 589.94,-396.38"/>
<text xml:space="preserve" text-anchor="middle" x="562.94" y="-374.5" font-family="Times New Roman,serif" font-size="10.00">passed</text>
</g>
<!-- TEST_APP_failed -->
<g id="node17" class="node">
<title>TEST_APP_failed</title>
<polygon fill="lightgray" stroke="black" points="514.94,-401.38 460.94,-401.38 460.94,-365.38 514.94,-365.38 514.94,-401.38"/>
<text xml:space="preserve" text-anchor="middle" x="487.94" y="-379.5" font-family="Times New Roman,serif" font-size="10.00">failed</text>
</g>
<!-- TEST_APP_run_test -->
<g id="node18" class="node">
<title>TEST_APP_run_test</title>
<polygon fill="lightcoral" stroke="black" points="599.94,-316.38 545.94,-316.38 545.94,-280.38 599.94,-280.38 599.94,-316.38"/>
<text xml:space="preserve" text-anchor="middle" x="572.94" y="-294.5" font-family="Times New Roman,serif" font-size="10.00">run_test</text>
</g>
<!-- legend_full -->
<g id="node19" class="node">
<title>legend_full</title>
<polygon fill="palegreen" stroke="black" points="627.81,-105 513.56,-105 513.56,-64 627.81,-64 627.81,-105"/>
<text xml:space="preserve" text-anchor="middle" x="570.69" y="-87.7" font-family="Times New Roman,serif" font-size="14.00">Full Contract</text>
<text xml:space="preserve" text-anchor="middle" x="570.69" y="-71.2" font-family="Times New Roman,serif" font-size="14.00">(require + ensure)</text>
</g>
<!-- legend_partial -->
<g id="node20" class="node">
<title>legend_partial</title>
<polygon fill="khaki" stroke="black" points="638.31,-41 521.06,-41 521.06,0 638.31,0 638.31,-41"/>
<text xml:space="preserve" text-anchor="middle" x="579.69" y="-23.7" font-family="Times New Roman,serif" font-size="14.00">Partial Contract</text>
<text xml:space="preserve" text-anchor="middle" x="579.69" y="-7.2" font-family="Times New Roman,serif" font-size="14.00">(require or ensure)</text>
</g>
<!-- legend_none -->
<g id="node21" class="node">
<title>legend_none</title>
<polygon fill="lightcoral" stroke="black" points="620.06,-163.5 537.31,-163.5 537.31,-127.5 620.06,-127.5 620.06,-163.5"/>
<text xml:space="preserve" text-anchor="middle" x="578.69" y="-140.45" font-family="Times New Roman,serif" font-size="14.00">No Contract</text>
</g>
<!-- legend_attr -->
<g id="node22" class="node">
<title>legend_attr</title>
<polygon fill="lightgray" stroke="black" points="514.06,-169 449.31,-169 449.31,-128 514.06,-128 514.06,-169"/>
<text xml:space="preserve" text-anchor="middle" x="481.69" y="-151.7" font-family="Times New Roman,serif" font-size="14.00">Attribute</text>
<text xml:space="preserve" text-anchor="middle" x="481.69" y="-135.2" font-family="Times New Roman,serif" font-size="14.00">(n/a)</text>
</g>
<!-- legend_stats -->
<g id="node23" class="node">
<title>legend_stats</title>
<polygon fill="white" stroke="black" points="485.81,-107 425.56,-107 425.56,0 491.81,0 491.81,-101 485.81,-107"/>
<polyline fill="none" stroke="black" points="485.81,-107 485.81,-101"/>
<polyline fill="none" stroke="black" points="491.81,-101 485.81,-101"/>
<text xml:space="preserve" text-anchor="middle" x="458.69" y="-89.7" font-family="Times New Roman,serif" font-size="14.00">Statistics</text>
<text xml:space="preserve" text-anchor="middle" x="458.69" y="-73.2" font-family="Times New Roman,serif" font-size="14.00">Full: 0</text>
<text xml:space="preserve" text-anchor="middle" x="458.69" y="-56.7" font-family="Times New Roman,serif" font-size="14.00">Partial: 0</text>
<text xml:space="preserve" text-anchor="middle" x="458.69" y="-40.2" font-family="Times New Roman,serif" font-size="14.00">None: 15</text>
<text xml:space="preserve" text-anchor="middle" x="458.69" y="-23.7" font-family="Times New Roman,serif" font-size="14.00">Attr: 3</text>
<text xml:space="preserve" text-anchor="middle" x="458.69" y="-7.2" font-family="Times New Roman,serif" font-size="14.00">Total: 18</text>
</g>
</g>
</svg>
