<?xml version="1.0" encoding="UTF-8" standalone="no"?>
<!DOCTYPE svg PUBLIC "-//W3C//DTD SVG 1.1//EN"
 "http://www.w3.org/Graphics/SVG/1.1/DTD/svg11.dtd">
<!-- Generated by graphviz version 14.1.1 (20251213.1925)
 -->
<!-- Title: Dependencies Pages: 1 -->
<svg width="344pt" height="429pt"
 viewBox="0.00 0.00 344.00 429.00" xmlns="http://www.w3.org/2000/svg" xmlns:xlink="http://www.w3.org/1999/xlink">
<g id="graph0" class="graph" transform="scale(1 1) rotate(0) translate(4 424.5)">
<title>Dependencies</title>
<polygon fill="white" stroke="none" points="-4,4 -4,-424.5 339.75,-424.5 339.75,4 -4,4"/>
<text xml:space="preserve" text-anchor="middle" x="167.88" y="-7.2" font-family="Times New Roman,serif" font-size="14.00">simple_config &#45; Dependencies</text>
<!-- simple_config -->
<g id="node1" class="node">
<title>simple_config</title>
<polygon fill="lightblue" stroke="black" points="94,-240.5 0,-240.5 0,-204.5 94,-204.5 94,-240.5"/>
<text xml:space="preserve" text-anchor="middle" x="47" y="-217.45" font-family="Times New Roman,serif" font-size="14.00">simple_config</text>
</g>
<!-- simple_json -->
<g id="node2" class="node">
<title>simple_json</title>
<polygon fill="lightblue" stroke="black" points="327.88,-420.5 245.88,-420.5 245.88,-384.5 327.88,-384.5 327.88,-420.5"/>
<text xml:space="preserve" text-anchor="middle" x="286.88" y="-397.45" font-family="Times New Roman,serif" font-size="14.00">simple_json</text>
</g>
<!-- simple_config&#45;&gt;simple_json -->
<g id="edge1" class="edge">
<title>simple_config&#45;&gt;simple_json</title>
<path fill="none" stroke="black" stroke-dasharray="5,2" d="M31.75,-240.75C31.75,-286.51 31.75,-402.5 31.75,-402.5 31.75,-402.5 234.09,-402.5 234.09,-402.5"/>
<polygon fill="black" stroke="black" points="234.09,-406 244.09,-402.5 234.09,-399 234.09,-406"/>
</g>
<!-- simple_factory -->
<g id="node3" class="node">
<title>simple_factory</title>
<polygon fill="lightblue" stroke="black" points="335.75,-348.5 238,-348.5 238,-312.5 335.75,-312.5 335.75,-348.5"/>
<text xml:space="preserve" text-anchor="middle" x="286.88" y="-325.45" font-family="Times New Roman,serif" font-size="14.00">simple_factory</text>
</g>
<!-- simple_config&#45;&gt;simple_factory -->
<g id="edge2" class="edge">
<title>simple_config&#45;&gt;simple_factory</title>
<path fill="none" stroke="black" stroke-dasharray="5,2" d="M62.75,-240.82C62.75,-271.63 62.75,-330.5 62.75,-330.5 62.75,-330.5 226.18,-330.5 226.18,-330.5"/>
<polygon fill="black" stroke="black" points="226.18,-334 236.18,-330.5 226.18,-327 226.18,-334"/>
</g>
<!-- simple_mml -->
<g id="node4" class="node">
<title>simple_mml</title>
<polygon fill="lightblue" stroke="black" points="329.75,-276.5 244,-276.5 244,-240.5 329.75,-240.5 329.75,-276.5"/>
<text xml:space="preserve" text-anchor="middle" x="286.88" y="-253.45" font-family="Times New Roman,serif" font-size="14.00">simple_mml</text>
</g>
<!-- simple_config&#45;&gt;simple_mml -->
<g id="edge3" class="edge">
<title>simple_config&#45;&gt;simple_mml</title>
<path fill="none" stroke="black" stroke-dasharray="5,2" d="M94.32,-228.5C160.52,-228.5 272.75,-228.5 272.75,-228.5 272.75,-228.5 272.75,-229.65 272.75,-229.65"/>
<polygon fill="black" stroke="black" points="269.25,-228.5 272.75,-238.5 276.25,-228.5 269.25,-228.5"/>
</g>
<!-- simple_testing -->
<g id="node5" class="node">
<title>simple_testing</title>
<polygon fill="lightblue" stroke="black" points="334.62,-204.5 239.12,-204.5 239.12,-168.5 334.62,-168.5 334.62,-204.5"/>
<text xml:space="preserve" text-anchor="middle" x="286.88" y="-181.45" font-family="Times New Roman,serif" font-size="14.00">simple_testing</text>
</g>
<!-- simple_config&#45;&gt;simple_testing -->
<g id="edge4" class="edge">
<title>simple_config&#45;&gt;simple_testing</title>
<path fill="none" stroke="black" stroke-dasharray="5,2" d="M94.43,-216.5C167.88,-216.5 300.75,-216.5 300.75,-216.5 300.75,-216.5 300.75,-215.35 300.75,-215.35"/>
<polygon fill="black" stroke="black" points="304.25,-216.5 300.75,-206.5 297.25,-216.5 304.25,-216.5"/>
</g>
<!-- base -->
<g id="node6" class="node">
<title>base</title>
<polygon fill="lightgray" stroke="black" points="313.88,-132.5 259.88,-132.5 259.88,-96.5 313.88,-96.5 313.88,-132.5"/>
<text xml:space="preserve" text-anchor="middle" x="286.88" y="-109.45" font-family="Times New Roman,serif" font-size="14.00">base</text>
</g>
<!-- simple_config&#45;&gt;base -->
<g id="edge5" class="edge">
<title>simple_config&#45;&gt;base</title>
<path fill="none" stroke="black" stroke-dasharray="5,2" d="M62.75,-204.18C62.75,-173.37 62.75,-114.5 62.75,-114.5 62.75,-114.5 247.88,-114.5 247.88,-114.5"/>
<polygon fill="black" stroke="black" points="247.88,-118 257.88,-114.5 247.88,-111 247.88,-118"/>
</g>
<!-- testing -->
<g id="node7" class="node">
<title>testing</title>
<polygon fill="lightgray" stroke="black" points="313.88,-60.5 259.88,-60.5 259.88,-24.5 313.88,-24.5 313.88,-60.5"/>
<text xml:space="preserve" text-anchor="middle" x="286.88" y="-37.45" font-family="Times New Roman,serif" font-size="14.00">testing</text>
</g>
<!-- simple_config&#45;&gt;testing -->
<g id="edge6" class="edge">
<title>simple_config&#45;&gt;testing</title>
<path fill="none" stroke="black" stroke-dasharray="5,2" d="M31.75,-204.25C31.75,-158.49 31.75,-42.5 31.75,-42.5 31.75,-42.5 248.06,-42.5 248.06,-42.5"/>
<polygon fill="black" stroke="black" points="248.06,-46 258.06,-42.5 248.06,-39 248.06,-46"/>
</g>
</g>
</svg>
